<?xml version="1.0" encoding="UTF-8"?><svg xmlns="http://www.w3.org/2000/svg" width="500" height="500" viewBox="0 0 500 500"><g id="Layer_2"><rect x="0" y="0" width="500" height="500" rx="250" ry="250" style="fill:#e6e5e5; stroke-width:0px;"/></g><g id="Layer_1"><path d="M0,0v500h500V0H0ZM442.48,256.21c-.2,1.48-.46,1.95-1.97,1.88-7.82-.38-15.66-.65-23.48-1.01-7.19-.33-14.38-.74-21.58-1.09-11.14-.55-22.28-1.12-33.42-1.61-5.94-.26-11.9-.51-17.83-.57-13.38-.12-26.7-1.58-40.07-1.41-.81,3.46-1.38,6.96-1.27,10.53,18.58,4.66,37.13,9.43,55.75,13.94,26.37,6.4,52.79,12.62,79.2,18.85,1.83.43,1.41,1.48,1.17,2.57-1.51,6.77-3.35,13.45-5.78,20.13-23.34-8.68-46.63-17.32-69.9-25.99-19.79-7.37-39.49-15.02-59.48-21.85-.98-.33-1.97-.61-2.95-.92-2.31,2.61-3.33,5.87-4.56,9.02,31.97,20.08,63.94,40.18,95.93,60.23,7.73,4.85,15.51,9.62,23.35,14.3,1.47.88,1.42,1.35.62,2.72-3.22,5.46-6.69,10.74-10.49,15.81-1.04,1.39-1.69,1.54-3.17.37-17.86-14.24-35.8-28.38-53.7-42.56-18.46-14.62-36.9-29.25-55.36-43.87-.4-.32-.92-.48-1.38-.71.31-1.31.88-2.45,1.62-3.47-.74,1.03-1.31,2.16-1.62,3.47-3.08,1.6-5.18,4.19-7.1,6.98,4.28,6.31,9.58,11.79,14.43,17.64,12.12,14.63,24.31,29.21,36.48,43.8,9.82,11.79,19.64,23.57,29.46,35.35,3.34,4.01,6.64,8.05,10.04,12.01.84.98,1.1,1.4-.13,2.36-5.08,3.98-10.23,7.84-15.52,11.55-1.86,1.3-2.44.85-3.51-.79-21.2-32.33-42.44-64.63-63.7-96.92-4-6.07-8.1-12.09-12.19-18.1-.57-.84-1.35-1.53-2.04-2.29-3.21.83-6.09,2.31-8.68,4.37,12.6,32.56,25.2,65.12,37.79,97.69,4.39,11.37,8.68,22.78,13.15,34.11.79,1.99.32,2.56-1.54,3.26-5.9,2.21-11.9,4.11-17.91,5.98-1.68.52-2.4.38-2.92-1.69-5.91-23.39-12.01-46.73-17.99-70.1-5.45-21.28-10.98-42.55-16.96-63.69-.3-1.08-.82-2.09-1.23-3.14-3.3.12-6.58.31-9.75,1.37-.45,4.81.2,9.6.5,14.37.97,15.34,1.69,30.68,2.37,46.03.43,9.81,1.26,19.6,1.57,29.41.25,8.13.4,16.27.85,24.4.49,8.87.65,17.77,1.21,26.63.18,2.88-.59,3.58-3.47,3.62-5.86.09-11.71,0-17.56-.06-2.28-.02-2.76-.79-2.61-2.97,1.52-23.12,2.9-46.26,4.38-69.38,1.22-19.07,2.46-38.15,3.79-57.21.35-4.97.89-9.92.92-14.9-3.22-1.03-6.58-1.32-9.88-1.9-6.84,21.93-12.7,44.15-18.81,66.29-6.53,23.64-13.01,47.29-19.37,70.97-.51,1.9-1.05,2.01-2.64,1.55-6.54-1.91-12.95-4.17-19.34-6.51-2.55-.93-.89-2.32-.48-3.35,10.16-25.22,20.36-50.42,30.61-75.61,7.29-17.9,14.68-35.76,22.01-53.64.23-.57.4-1.17.59-1.76-2.45-2.48-5.89-3.21-8.76-4.94-6.93,9.09-13.2,18.65-19.52,28.16-19.46,29.31-38.74,58.75-58.11,88.12-2.53,3.83-2.62,3.84-6.42,1.17-4.6-3.23-9.18-6.48-13.42-10.19-1.3-1.14-1.4-1.79-.22-3.18,18.8-22.25,37.5-44.6,56.3-66.85,11.78-13.94,23.68-27.77,35.53-41.65-2.11-2.48-4.25-4.94-6.8-6.99-15.32,10.82-29.86,22.67-44.56,34.3-20.53,16.24-40.97,32.6-61.44,48.92-2.28,1.81-4.51,3.68-6.81,5.57-4.33-5.45-8.03-11.1-11.71-16.78-1.22-1.89-1.1-2.76.89-3.97,20.03-12.23,40.03-24.51,59.97-36.89,19.23-11.94,38.37-24.02,57.55-36.04.61-.38,1.14-.87,1.71-1.31-.84-3.1-2.55-5.81-3.91-8.67-21.21,7.14-42.04,15.29-63.02,23.06-22.41,8.3-44.87,16.44-67.27,24.75-2.09.78-2.94.51-3.5-1.63-1.54-5.88-3.21-11.72-4.83-17.58-.39-1.4-.22-2.08,1.57-2.49,20.26-4.69,40.49-9.47,60.71-14.33,24.24-5.83,48.45-11.75,72.67-17.63.59-.14,1.16-.39,1.75-.59-.69-3.51-.67-7.14-1.8-10.58-11.67.51-23.33,1.02-35,1.52-2.51.11-5.02.15-7.53.26-18.78.77-37.56,1.54-56.34,2.3-12.22.5-24.45.9-36.67,1.52-2.5.13-2.97-.69-2.87-2.94.17-3.83.17-7.69,0-11.52-.1-2.13.64-2.6,2.65-2.51,12.43.57,24.86,1.03,37.29,1.52,8.98.35,17.97.69,26.96,1.04,16.79.66,33.59,1.18,50.36,2.07,7.21.38,14.4.44,21.6.19.44-3.27.89-6.55,1.33-9.82-15.36-3.78-30.7-7.62-46.08-11.32-28.36-6.82-56.75-13.56-85.12-20.34-5.71-1.37-5.68-1.4-4.45-7.27.97-4.65,2.5-9.15,3.78-13.71.61-2.17,1.47-2.36,3.52-1.6,21.34,7.92,42.74,15.7,64.11,23.57,20.5,7.55,40.98,15.16,61.48,22.73,1.54.57,3.13,1.01,4.7,1.52,1.27-2.9,3.33-5.46,3.91-8.67-9.13-6.51-18.77-12.24-28.28-18.15-30.35-18.84-60.77-37.59-91.2-56.31-1.74-1.07-1.83-1.78-.77-3.49,3.63-5.84,7.49-11.5,11.8-17.04,9.1,7.24,18.16,14.44,27.21,21.65,13.86,11.06,27.69,22.17,41.57,33.2,13.54,10.76,27.06,21.55,41.01,31.78,1,.73,2.04,1.41,3.05,2.12,2.55-2.06,4.68-4.53,6.78-7.02-7.3-8.56-14.64-17.09-21.91-25.67-10.87-12.83-21.7-25.69-32.53-38.55-10.49-12.46-20.95-24.95-31.43-37.42-2.02-2.4-4.04-4.79-6.15-7.11-.84-.92-1.17-1.48-.03-2.5,5.21-4.66,11-8.55,16.7-12.56,1.28-.9,1.45.07,1.96.85,6.86,10.4,13.79,20.75,20.62,31.17,18.74,28.55,37.4,57.17,56.85,85.25.53.77,1.18,1.45,1.78,2.17,2.99-1.53,6.22-2.62,8.76-4.93-3.85-9.48-7.7-18.97-11.55-28.45-13.94-34.27-27.88-68.54-41.88-102.79-.8-1.96-.57-2.7,1.54-3.46,6.11-2.2,12.24-4.34,18.47-6.18,1.54-.45,2.15-.43,2.67,1.51,4.86,18.2,9.96,36.34,14.91,54.53,7.17,26.36,14.29,52.73,22.03,78.94.38,1.28.83,2.54,1.25,3.81,3.29-.75,6.81-.46,9.86-2.25-.41-7.26-.76-14.52-1.23-21.78-.74-11.57-1.56-23.14-2.35-34.71-.88-12.92-1.75-25.83-2.63-38.75-.55-8.03-1.15-16.06-1.65-24.09-.46-7.38-.73-14.77-1.24-22.14-.14-1.96.42-2.55,2.34-2.6,6.48-.17,12.96-.26,19.45,0,1.53.06,1.97.53,1.9,2-.48,10.45-.83,20.9-1.38,31.34-.36,6.78-.32,13.56-.66,20.33-.41,8.14-.84,16.27-1.18,24.41-.48,11.49-1.11,22.97-1.74,34.46-.51,9.28-1.14,18.56-1.67,27.84-.08,1.34.08,2.69.13,4.04,3.17,1,6.45,1.24,9.75,1.36,3.02-7.38,4.68-15.17,6.71-22.83,6.11-23.02,11.96-46.12,17.92-69.18,3.89-15.07,7.86-30.12,11.62-45.23.46-1.85,1.23-1.92,2.55-1.49,6.18,2.03,12.32,4.16,18.51,6.15,1.93.62,1.9,1.48,1.24,3.17-7.33,18.88-14.53,37.81-21.84,56.69-9.14,23.6-18.35,47.18-27.52,70.77-.56,1.44-1.05,2.91-1.57,4.36,2.59,2.05,5.48,3.49,8.68,4.33,3.73-3.94,6.37-8.66,9.33-13.14,22.86-34.59,45.68-69.22,68.43-103.89,1.27-1.94,1.95-2.31,3.95-.87,5.15,3.71,10.25,7.48,15.25,11.4,1.24.97.92,1.39.1,2.36-7.67,9.1-15.29,18.23-22.89,27.38-10.66,12.85-21.24,25.77-31.93,38.59-9.37,11.23-18.87,22.34-28.25,33.55-2.53,3.02-5.25,5.9-7.32,9.28,1.92,2.78,4.03,5.35,7.06,7.01,5.75-3.6,10.88-8.03,16.18-12.22,19.46-15.38,38.8-30.9,58.21-46.33,12-9.54,24.08-18.99,36.06-28.57,1.43-1.14,2.1-1.1,3.17.31,3.96,5.22,7.47,10.72,10.84,16.33.92,1.53-.1,1.65-.93,2.17-8.65,5.33-17.28,10.68-25.93,16.01-31,19.1-61.85,38.45-92.5,58.11-.34.22-.74.33-1.11.49,1.59,3.01,2.59,6.34,4.84,8.99,8.92-2.57,17.55-6.01,26.25-9.23,31.82-11.77,63.59-23.69,95.38-35.55,3.55-1.32,7.12-2.6,10.72-3.92,2.4,6.65,4.24,13.33,5.78,20.09.3,1.33.38,2.15-1.52,2.59-37.04,8.55-74.02,17.33-110.84,26.79-7.91,2.03-15.85,3.98-23.77,5.96-.23,3.28.59,6.47.86,9.71,8.57.22,17.13.53,25.69-.18,1.15-.1,2.3-.15,3.45-.18,9.19-.25,18.38-.39,27.56-.74,14.28-.55,28.56-1.21,42.83-1.88,11.99-.56,23.98-1.11,35.96-1.9,2.71-.18,3.69.74,3.28,3.12-.7,4.03.52,8.02-.02,12.05Z" style="fill:none; stroke-width:0px;"/><path d="M303.73,245.93c-.27-3.24-1.09-6.42-.86-9.71-1.65-1.95-1.88-4.33-2-6.74-2.25-2.66-3.24-5.98-4.84-8.99-1.48-2-3.43-3.71-3.99-6.3-3.03-1.66-5.14-4.23-7.06-7.01-2.71-.84-4.71-2.72-6.66-4.65-3.19-.84-6.09-2.28-8.68-4.33-2.62-.57-5.24-1.15-7.64-2.41-3.3-.12-6.58-.37-9.75-1.36-2.7.02-5.43.7-8.08-.33-3.05,1.79-6.58,1.5-9.86,2.25-2.52.54-4.73,2.19-7.43,2.11-2.54,2.32-5.77,3.4-8.76,4.93-1.77,1.71-3.69,3.22-5.88,4.37-2.11,2.49-4.23,4.96-6.78,7.02-1.11,2.33-2.65,4.35-4.4,6.22-.59,3.22-2.64,5.77-3.91,8.67-.65,2.14-1.3,4.28-1.95,6.42-.44,3.27-.89,6.55-1.33,9.82.23,2.21.51,4.43-.46,6.56,1.12,3.44,1.11,7.07,1.8,10.58.64,2.14,1.29,4.29,1.93,6.43,1.36,2.86,3.07,5.57,3.91,8.67,1.77,1.86,3.31,3.88,4.41,6.21,2.56,2.05,4.69,4.51,6.8,6.99,2.15,1.22,4.12,2.67,5.86,4.43,2.88,1.73,6.31,2.46,8.76,4.94,2.7-.14,4.89,1.58,7.43,2.05,3.3.58,6.67.87,9.88,1.9,2.69.02,5.38.03,8.07.05,3.17-1.05,6.45-1.25,9.75-1.37,2.39-1.3,5.02-1.83,7.62-2.43,2.59-2.06,5.47-3.54,8.68-4.37,1.99-1.88,3.98-3.76,6.68-4.61,1.91-2.79,4.01-5.38,7.1-6.98.31-1.31.88-2.45,1.62-3.47.74-1.03,1.63-1.94,2.59-2.82,1.22-3.16,2.25-6.41,4.56-9.02.14-2.4.36-4.78,2-6.74-.12-3.58.46-7.07,1.27-10.53-1.21-2.09-.63-4.29-.4-6.47Z" style="fill:#ef8696; stroke-width:0px;"/><path d="M252.26,194.44c-.05-1.35-.21-2.7-.13-4.04.53-9.28,1.16-18.56,1.67-27.84.63-11.48,1.26-22.97,1.74-34.46.34-8.14.77-16.27,1.18-24.41.34-6.76.3-13.55.66-20.33.56-10.44.9-20.89,1.38-31.34.07-1.47-.37-1.94-1.9-2-6.49-.25-12.96-.16-19.45,0-1.92.05-2.47.65-2.34,2.6.51,7.37.79,14.76,1.24,22.14.5,8.03,1.1,16.06,1.65,24.09.88,12.92,1.76,25.83,2.63,38.75.79,11.57,1.61,23.14,2.35,34.71.47,7.26.82,14.52,1.23,21.78,2.66,1.03,5.38.36,8.08.33Z" style="fill:#101111; stroke-width:0px;"/><path d="M243.28,319.59c-1.33,19.07-2.58,38.14-3.79,57.21-1.48,23.13-2.86,46.26-4.38,69.38-.14,2.18.33,2.94,2.61,2.97,5.86.06,11.7.15,17.56.06,2.88-.05,3.65-.74,3.47-3.62-.55-8.87-.71-17.76-1.21-26.63-.45-8.13-.6-16.26-.85-24.4-.3-9.81-1.13-19.6-1.57-29.41-.67-15.35-1.4-30.7-2.37-46.03-.3-4.77-.95-9.56-.5-14.37-2.69-.02-5.38-.03-8.07-.05-.04,4.98-.58,9.94-.92,14.9Z" style="fill:#101111; stroke-width:0px;"/><path d="M226.3,302.49c-7.34,17.88-14.73,35.74-22.01,53.64-10.25,25.18-20.45,50.39-30.61,75.61-.42,1.03-2.07,2.42.48,3.35,6.39,2.34,12.81,4.6,19.34,6.51,1.59.46,2.13.35,2.64-1.55,6.36-23.68,12.84-47.33,19.37-70.97,6.12-22.14,11.97-44.35,18.81-66.29-2.53-.47-4.72-2.2-7.43-2.05-.2.59-.36,1.19-.59,1.76Z" style="fill:#101111; stroke-width:0px;"/><path d="M233.08,192.54c-7.74-26.2-14.87-52.57-22.03-78.94-4.94-18.18-10.04-36.32-14.91-54.53-.52-1.94-1.13-1.96-2.67-1.51-6.23,1.84-12.36,3.98-18.47,6.18-2.11.76-2.34,1.5-1.54,3.46,14,34.25,27.93,68.52,41.88,102.79,3.86,9.48,7.7,18.97,11.55,28.45,2.7.08,4.91-1.57,7.43-2.11-.42-1.27-.87-2.53-1.25-3.81Z" style="fill:#101111; stroke-width:0px;"/><path d="M271.22,193.85c9.17-23.59,18.38-47.16,27.52-70.77,7.31-18.88,14.51-37.81,21.84-56.69.65-1.69.69-2.55-1.24-3.17-6.19-1.98-12.34-4.11-18.51-6.15-1.31-.43-2.09-.37-2.55,1.49-3.77,15.1-7.73,30.15-11.62,45.23-5.96,23.06-11.8,46.16-17.92,69.18-2.03,7.66-3.7,15.45-6.71,22.83,2.4,1.27,5.02,1.85,7.64,2.41.52-1.45,1.01-2.92,1.57-4.36Z" style="fill:#101111; stroke-width:0px;"/><path d="M263.25,306.51c5.99,21.14,11.52,42.4,16.96,63.69,5.98,23.37,12.08,46.71,17.99,70.1.52,2.07,1.24,2.21,2.92,1.69,6.01-1.86,12.01-3.76,17.91-5.98,1.86-.7,2.33-1.27,1.54-3.26-4.47-11.34-8.76-22.75-13.15-34.11-12.58-32.57-25.19-65.13-37.79-97.69-2.61.6-5.24,1.13-7.62,2.43.42,1.04.93,2.06,1.23,3.14Z" style="fill:#101111; stroke-width:0px;"/><path d="M292.32,197.91c9.38-11.21,18.89-22.32,28.25-33.55,10.69-12.82,21.27-25.74,31.93-38.59,7.6-9.16,15.22-18.29,22.89-27.38.82-.97,1.14-1.38-.1-2.36-5-3.92-10.1-7.68-15.25-11.4-1.99-1.44-2.68-1.07-3.95.87-22.75,34.67-45.56,69.29-68.43,103.89-2.96,4.48-5.61,9.2-9.33,13.14,1.96,1.93,3.95,3.81,6.66,4.65,2.07-3.38,4.79-6.26,7.32-9.28Z" style="fill:#101111; stroke-width:0px;"/><path d="M280.36,298.87c4.09,6.02,8.19,12.03,12.19,18.1,21.26,32.29,42.5,64.59,63.7,96.92,1.07,1.63,1.65,2.09,3.51.79,5.28-3.71,10.44-7.58,15.52-11.55,1.23-.96.97-1.38.13-2.36-3.4-3.96-6.7-8-10.04-12.01-9.82-11.79-19.64-23.57-29.46-35.35-12.16-14.6-24.35-29.17-36.48-43.8-4.85-5.85-10.15-11.33-14.43-17.64-2.7.85-4.69,2.73-6.68,4.61.69.76,1.47,1.45,2.04,2.29Z" style="fill:#101111; stroke-width:0px;"/><path d="M216.35,201.22c-19.45-28.08-38.11-56.69-56.85-85.25-6.84-10.41-13.76-20.77-20.62-31.17-.51-.78-.68-1.75-1.96-.85-5.7,4.01-11.48,7.9-16.7,12.56-1.14,1.02-.81,1.57.03,2.5,2.11,2.32,4.13,4.71,6.15,7.11,10.48,12.47,20.94,24.96,31.43,37.42,10.83,12.86,21.66,25.72,32.53,38.55,7.27,8.58,14.6,17.11,21.91,25.67,2.19-1.15,4.11-2.66,5.88-4.37-.6-.72-1.25-1.4-1.78-2.17Z" style="fill:#101111; stroke-width:0px;"/><path d="M176.74,333.02c-18.8,22.26-37.5,44.6-56.3,66.85-1.18,1.39-1.07,2.04.22,3.18,4.24,3.71,8.83,6.96,13.42,10.19,3.79,2.67,3.89,2.66,6.42-1.17,19.37-29.37,38.65-58.81,58.11-88.12,6.32-9.51,12.59-19.07,19.52-28.16-1.74-1.76-3.72-3.2-5.86-4.43-11.85,13.88-23.75,27.71-35.53,41.65Z" style="fill:#101111; stroke-width:0px;"/><path d="M293.72,281.51c-.74,1.03-1.31,2.16-1.62,3.47.46.23.99.39,1.38.71,18.46,14.62,36.9,29.25,55.36,43.87,17.9,14.18,35.84,28.32,53.7,42.56,1.47,1.17,2.13,1.03,3.17-.37,3.8-5.07,7.27-10.35,10.49-15.81.81-1.37.85-1.84-.62-2.72-7.83-4.68-15.61-9.45-23.35-14.3-31.99-20.06-63.96-40.15-95.93-60.23-.96.88-1.86,1.79-2.59,2.82Z" style="fill:#101111; stroke-width:0px;"/><path d="M297.16,220c30.65-19.66,61.49-39.01,92.5-58.11,8.65-5.33,17.28-10.68,25.93-16.01.84-.52,1.85-.63.93-2.17-3.37-5.61-6.88-11.11-10.84-16.33-1.07-1.41-1.75-1.46-3.17-.31-11.97,9.58-24.05,19.03-36.06,28.57-19.41,15.43-38.76,30.96-58.21,46.33-5.3,4.19-10.43,8.62-16.18,12.22.56,2.59,2.5,4.29,3.99,6.3.37-.16.77-.28,1.11-.49Z" style="fill:#101111; stroke-width:0px;"/><path d="M202.41,212.66c-13.95-10.23-27.47-21.03-41.01-31.78-13.89-11.03-27.71-22.14-41.57-33.2-9.04-7.21-18.1-14.41-27.21-21.65-4.31,5.54-8.18,11.2-11.8,17.04-1.06,1.71-.97,2.42.77,3.49,30.43,18.72,60.84,37.46,91.2,56.31,9.52,5.91,19.15,11.64,28.28,18.15,1.75-1.87,3.29-3.9,4.4-6.22-1.02-.71-2.06-1.39-3.05-2.12Z" style="fill:#101111; stroke-width:0px;"/><path d="M199.35,279.48c-19.17,12.03-38.32,24.1-57.55,36.04-19.94,12.38-39.94,24.66-59.97,36.89-1.99,1.21-2.11,2.09-.89,3.97,3.68,5.67,7.39,11.32,11.71,16.78,2.3-1.88,4.53-3.75,6.81-5.57,20.47-16.32,40.91-32.67,61.44-48.92,14.7-11.63,29.24-23.48,44.56-34.3-1.1-2.33-2.64-4.35-4.41-6.21-.57.44-1.1.93-1.71,1.31Z" style="fill:#101111; stroke-width:0px;"/><path d="M303.82,270.59c19.99,6.83,39.69,14.48,59.48,21.85,23.28,8.67,46.57,17.31,69.9,25.99,2.43-6.67,4.27-13.35,5.78-20.13.24-1.09.66-2.14-1.17-2.57-26.41-6.23-52.83-12.45-79.2-18.85-18.61-4.51-37.17-9.29-55.75-13.94-1.63,1.96-1.86,4.33-2,6.74.98.3,1.98.58,2.95.92Z" style="fill:#101111; stroke-width:0px;"/><path d="M326.65,230.26c36.82-9.45,73.8-18.23,110.84-26.79,1.9-.44,1.83-1.26,1.52-2.59-1.54-6.76-3.38-13.45-5.78-20.09-3.6,1.31-7.17,2.59-10.72,3.92-31.79,11.86-63.56,23.78-95.38,35.55-8.7,3.22-17.32,6.66-26.25,9.23.12,2.41.34,4.79,2,6.74,7.93-1.99,15.86-3.93,23.77-5.96Z" style="fill:#101111; stroke-width:0px;"/><path d="M192.46,228.16c-20.5-7.57-40.98-15.18-61.48-22.73-21.36-7.87-42.76-15.65-64.11-23.57-2.05-.76-2.91-.58-3.52,1.6-1.28,4.56-2.81,9.06-3.78,13.71-1.23,5.87-1.26,5.9,4.45,7.27,28.37,6.79,56.75,13.52,85.12,20.34,15.38,3.7,30.72,7.54,46.08,11.32.65-2.14,1.3-4.28,1.95-6.42-1.57-.5-3.16-.95-4.7-1.52Z" style="fill:#101111; stroke-width:0px;"/><path d="M193.47,263.65c-24.22,5.89-48.43,11.81-72.67,17.63-20.22,4.86-40.45,9.64-60.71,14.33-1.78.41-1.95,1.09-1.57,2.49,1.62,5.86,3.29,11.7,4.83,17.58.56,2.14,1.4,2.41,3.5,1.63,22.4-8.32,44.86-16.45,67.27-24.75,20.98-7.77,41.81-15.92,63.02-23.06-.64-2.15-1.29-4.29-1.93-6.43-.58.2-1.15.44-1.75.59Z" style="fill:#101111; stroke-width:0px;"/><path d="M193.88,245.93c-7.2.25-14.39.19-21.6-.19-16.78-.89-33.57-1.41-50.36-2.07-8.98-.35-17.97-.69-26.96-1.04-12.43-.49-24.87-.95-37.29-1.52-2.01-.09-2.75.38-2.65,2.51.17,3.83.18,7.69,0,11.52-.1,2.25.37,3.07,2.87,2.94,12.22-.62,24.44-1.02,36.67-1.52,18.78-.76,37.56-1.54,56.34-2.3,2.51-.1,5.02-.15,7.53-.26,11.67-.5,23.33-1.01,35-1.52.98-2.13.69-4.35.46-6.56Z" style="fill:#101111; stroke-width:0px;"/><path d="M442.5,244.16c.41-2.38-.57-3.3-3.28-3.12-11.98.79-23.97,1.33-35.96,1.9-14.27.67-28.55,1.33-42.83,1.88-9.18.35-18.37.49-27.56.74-1.15.03-2.3.09-3.45.18-8.56.71-17.13.4-25.69.18-.23,2.18-.81,4.38.4,6.47,13.38-.17,26.7,1.29,40.07,1.41,5.93.05,11.89.3,17.83.57,11.14.49,22.28,1.06,33.42,1.61,7.19.35,14.38.76,21.58,1.09,7.83.36,15.66.63,23.48,1.01,1.51.07,1.78-.4,1.97-1.88.54-4.03-.68-8.02.02-12.05Z" style="fill:#101111; stroke-width:0px;"/></g></svg>